<svg width="24" height="24" viewBox="0 0 24 24" fill="none" xmlns="http://www.w3.org/2000/svg">
<g clip-path="url(#clip0)">
<path d="M23.6497 3.18325C23.2461 2.85888 22.656 2.92324 22.3317 3.32683L9.85741 18.8517C9.6881 19.0328 9.45925 19.1377 9.21067 19.1477C8.95478 19.158 8.71244 19.0666 8.52991 18.8931L1.58622 12.2373C1.21239 11.879 0.619003 11.8916 0.26069 12.2653C-0.0975756 12.6391 -0.0850131 13.2325 0.288768 13.5909L7.23522 20.2494C7.76303 20.7511 8.446 21.0235 9.16966 21.0235C9.20833 21.0235 9.24724 21.0227 9.2861 21.0211C10.0526 20.9903 10.7566 20.6586 11.2683 20.0871C11.2795 20.0747 11.2902 20.0619 11.3007 20.0489L23.7933 4.50128C24.1176 4.09764 24.0533 3.50758 23.6497 3.18325Z" fill="#05B993"/>
</g>
<defs>
<clipPath id="clip0">
<rect width="24" height="24" fill="white" transform="translate(0.000488281)"/>
</clipPath>
</defs>
</svg>
