<svg width="82" height="82" viewBox="0 0 82 82" fill="none" xmlns="http://www.w3.org/2000/svg">
<circle cx="41" cy="41" r="40.5" stroke="#1C5948"/>
<path d="M51.3222 12.8555V14.5666H54.3895L36.7889 32.1671L28.2442 23.612L17.3834 34.4729L18.5832 35.6831L28.2442 26.0325L36.7889 34.5772L55.5998 15.7768V18.8337H57.3108V12.8555H51.3222Z" fill="#1C5948"/>
<path d="M63.289 62.4335V24.8223H54.7443V62.4335H53.0333V29.9554H44.4886V62.444H42.7776V41.9221H34.2224V62.4335H32.5114V36.7891H23.9667V62.4335H22.2557V50.4668H13.711V62.4335H12V64.1446H65V62.4335H63.289ZM20.5551 62.4335H15.422V52.1778H20.5551V62.4335ZM30.8108 62.4335H25.6778V38.5001H30.8108V62.4335ZM41.0665 62.444H35.9335V43.6332H41.0665V62.444ZM51.3222 62.444H46.1892V31.6664H51.3222V62.444ZM61.5884 62.4335H56.4553V26.5334H61.5884V62.4335Z" fill="#1C5948"/>
</svg>
