<svg width="82" height="82" viewBox="0 0 82 82" fill="none" xmlns="http://www.w3.org/2000/svg">
<circle cx="41" cy="41" r="40.5" stroke="#1C5948"/>
<path d="M53.7947 48.8418C53.8209 45.2816 52.4135 42.466 49.6064 40.4777C47.4384 38.9468 44.8073 38.1482 42.2625 37.3808C36.9613 35.7737 35.4235 34.9272 35.4235 32.3921C35.4235 29.5683 39.0933 28.5636 42.2349 28.5636C44.5228 28.5636 47.1551 29.275 48.7898 30.3292L52.0307 25.31C49.8942 23.9249 46.9702 22.9802 44.0828 22.687V18H38.1044V23.0156C32.79 24.1847 29.4423 27.658 29.4423 32.3921C29.4423 35.7076 30.82 38.337 33.5294 40.1915C35.5901 41.6073 38.1033 42.3675 40.531 43.1036C45.7308 44.6753 47.8423 45.633 47.8183 48.8047L47.8181 48.8281C47.8181 51.4902 44.2903 52.4365 41.2679 52.4365C38.4128 52.4365 35.3081 51.1853 33.5483 49.3249L29.2051 53.4332C31.4338 55.7904 34.6719 57.457 38.1042 58.1102V63.0001H44.0828V58.2155C49.9881 57.3702 53.7889 53.8149 53.7947 48.8418Z" fill="#1C5948"/>
</svg>
