<svg width="82" height="82" viewBox="0 0 82 82" fill="none" xmlns="http://www.w3.org/2000/svg">
<circle cx="41" cy="41" r="40.5" stroke="#1C5948"/>
<path d="M62.5397 39.3424L52.1333 28.3173C51.4938 27.639 50.4262 27.608 49.7478 28.2481C49.0705 28.8877 49.0391 29.9559 49.6792 30.6337L58.9926 40.5L49.6792 50.3674C49.0391 51.0453 49.0705 52.1129 49.7478 52.753C50.0741 53.0607 50.4908 53.2131 50.906 53.2131C51.3544 53.2131 51.8021 53.0354 52.1334 52.6849L62.5397 41.6593C63.1533 41.0085 63.1533 39.9926 62.5397 39.3424Z" fill="#1C5948"/>
<path d="M31.3214 50.3669L22.0086 40.5L31.3214 30.6332C31.961 29.9554 31.93 28.8871 31.2522 28.2476C30.5749 27.608 29.5062 27.639 28.8667 28.3168L18.4604 39.3419C17.8467 39.9921 17.8467 41.0085 18.4604 41.6588L28.8672 52.6844C29.1991 53.036 29.6463 53.2132 30.0946 53.2132C30.5097 53.2132 30.9266 53.0602 31.2522 52.7525C31.9306 52.1129 31.961 51.0447 31.3214 50.3669Z" fill="#1C5948"/>
<path d="M43.23 22.6316C42.3091 22.4921 41.4474 23.1243 41.3067 24.0451L36.3567 56.4453C36.2161 57.3667 36.8489 58.2279 37.7703 58.3686C37.8569 58.3815 37.9424 58.3877 38.0274 58.3877C38.8469 58.3877 39.5658 57.7898 39.6935 56.955L44.6435 24.5548C44.7842 23.6334 44.1513 22.7722 43.23 22.6316Z" fill="#1C5948"/>
</svg>
